<svg width="19" height="18" viewBox="0 0 19 18" fill="none" xmlns="http://www.w3.org/2000/svg">
<path d="M13 10.5C13.4333 10.5 13.7917 10.3583 14.075 10.075C14.3583 9.79167 14.5 9.43333 14.5 9C14.5 8.56667 14.3583 8.20833 14.075 7.925C13.7917 7.64167 13.4333 7.5 13 7.5C12.5667 7.5 12.2083 7.64167 11.925 7.925C11.6417 8.20833 11.5 8.56667 11.5 9C11.5 9.43333 11.6417 9.79167 11.925 10.075C12.2083 10.3583 12.5667 10.5 13 10.5ZM2 18C1.45 18 0.979 17.8043 0.587 17.413C0.195667 17.021 0 16.55 0 16V2C0 1.45 0.195667 0.979 0.587 0.587C0.979 0.195667 1.45 0 2 0H16C16.55 0 17.021 0.195667 17.413 0.587C17.8043 0.979 18 1.45 18 2V4.5H16V2H2V16H16V13.5H18V16C18 16.55 17.8043 17.021 17.413 17.413C17.021 17.8043 16.55 18 16 18H2ZM10 14C9.45 14 8.97933 13.8043 8.588 13.413C8.196 13.021 8 12.55 8 12V6C8 5.45 8.196 4.979 8.588 4.587C8.97933 4.19567 9.45 4 10 4H17C17.55 4 18.021 4.19567 18.413 4.587C18.8043 4.979 19 5.45 19 6V12C19 12.55 18.8043 13.021 18.413 13.413C18.021 13.8043 17.55 14 17 14H10Z" fill="rgb(180, 180, 183)"/>
</svg>
